<mxfile modified="2023-04-06T14:00:07.564Z" host="Electron" agent="Mozilla/5.0 (Windows NT 10.0; Win64; x64) AppleWebKit/537.36 (KHTML, like Gecko) draw.io/21.1.2 Chrome/106.0.5249.199 Electron/21.4.3 Safari/537.36" etag="kqiY20hSXCkg026XaF6V" version="21.1.2" type="device">
  <diagram id="Ht1M8jgEwFfnCIfOTk4-" name="Page-1">
    <mxGraphModel dx="2182" dy="2101" grid="1" gridSize="10" guides="1" tooltips="1" connect="1" arrows="1" fold="1" page="1" pageScale="1" pageWidth="1169" pageHeight="827" math="0" shadow="0">
      <root>
        <mxCell id="0" />
        <mxCell id="1" parent="0" />
        <mxCell id="B-HFraodg1j9e7LwRYst-1" value="AWS Cloud" style="points=[[0,0],[0.25,0],[0.5,0],[0.75,0],[1,0],[1,0.25],[1,0.5],[1,0.75],[1,1],[0.75,1],[0.5,1],[0.25,1],[0,1],[0,0.75],[0,0.5],[0,0.25]];outlineConnect=0;gradientColor=none;html=1;whiteSpace=wrap;fontSize=12;fontStyle=0;container=1;pointerEvents=0;collapsible=0;recursiveResize=0;shape=mxgraph.aws4.group;grIcon=mxgraph.aws4.group_aws_cloud_alt;strokeColor=#232F3E;fillColor=none;verticalAlign=top;align=left;spacingLeft=30;fontColor=#232F3E;dashed=0;" parent="1" vertex="1">
          <mxGeometry x="40" y="-801" width="1040" height="730" as="geometry" />
        </mxCell>
        <mxCell id="B-HFraodg1j9e7LwRYst-2" value="VPC" style="points=[[0,0],[0.25,0],[0.5,0],[0.75,0],[1,0],[1,0.25],[1,0.5],[1,0.75],[1,1],[0.75,1],[0.5,1],[0.25,1],[0,1],[0,0.75],[0,0.5],[0,0.25]];outlineConnect=0;gradientColor=none;html=1;whiteSpace=wrap;fontSize=12;fontStyle=1;container=1;pointerEvents=0;collapsible=0;recursiveResize=0;shape=mxgraph.aws4.group;grIcon=mxgraph.aws4.group_vpc;strokeColor=#248814;fillColor=none;verticalAlign=top;align=left;spacingLeft=30;fontColor=#AAB7B8;dashed=0;" parent="B-HFraodg1j9e7LwRYst-1" vertex="1">
          <mxGeometry x="40" y="40" width="960" height="650" as="geometry" />
        </mxCell>
        <mxCell id="B-HFraodg1j9e7LwRYst-3" value="Region" style="points=[[0,0],[0.25,0],[0.5,0],[0.75,0],[1,0],[1,0.25],[1,0.5],[1,0.75],[1,1],[0.75,1],[0.5,1],[0.25,1],[0,1],[0,0.75],[0,0.5],[0,0.25]];outlineConnect=0;gradientColor=none;html=1;whiteSpace=wrap;fontSize=12;fontStyle=0;container=1;pointerEvents=0;collapsible=0;recursiveResize=0;shape=mxgraph.aws4.group;grIcon=mxgraph.aws4.group_region;strokeColor=#147EBA;fillColor=none;verticalAlign=top;align=left;spacingLeft=30;fontColor=#147EBA;dashed=1;" parent="B-HFraodg1j9e7LwRYst-2" vertex="1">
          <mxGeometry x="40" y="30" width="880" height="570" as="geometry" />
        </mxCell>
        <mxCell id="gc6HZHHbiF4WIszibfzu-50" value="" style="group" vertex="1" connectable="0" parent="B-HFraodg1j9e7LwRYst-3">
          <mxGeometry x="610" y="20" width="218" height="500" as="geometry" />
        </mxCell>
        <mxCell id="gc6HZHHbiF4WIszibfzu-51" value="" style="rounded=0;whiteSpace=wrap;html=1;" vertex="1" parent="gc6HZHHbiF4WIszibfzu-50">
          <mxGeometry width="218.00000000000003" height="486.4864864864865" as="geometry" />
        </mxCell>
        <mxCell id="gc6HZHHbiF4WIszibfzu-52" value="3" style="ellipse;whiteSpace=wrap;html=1;aspect=fixed;fillColor=#fa6800;fontColor=#FFFFFF;strokeColor=#C73500;" vertex="1" parent="gc6HZHHbiF4WIszibfzu-50">
          <mxGeometry x="196.20000000000002" y="472.972972972973" width="21.8" height="21.8" as="geometry" />
        </mxCell>
        <mxCell id="gc6HZHHbiF4WIszibfzu-49" value="" style="group" vertex="1" connectable="0" parent="B-HFraodg1j9e7LwRYst-3">
          <mxGeometry x="10" y="70" width="200" height="370" as="geometry" />
        </mxCell>
        <mxCell id="gc6HZHHbiF4WIszibfzu-47" value="" style="rounded=0;whiteSpace=wrap;html=1;" vertex="1" parent="gc6HZHHbiF4WIszibfzu-49">
          <mxGeometry width="200" height="360" as="geometry" />
        </mxCell>
        <mxCell id="gc6HZHHbiF4WIszibfzu-45" value="1" style="ellipse;whiteSpace=wrap;html=1;aspect=fixed;fillColor=#fa6800;fontColor=#FFFFFF;strokeColor=#C73500;" vertex="1" parent="gc6HZHHbiF4WIszibfzu-49">
          <mxGeometry x="180" y="350" width="20" height="20" as="geometry" />
        </mxCell>
        <mxCell id="B-HFraodg1j9e7LwRYst-5" value="Bronze" style="sketch=0;points=[[0,0,0],[0.25,0,0],[0.5,0,0],[0.75,0,0],[1,0,0],[0,1,0],[0.25,1,0],[0.5,1,0],[0.75,1,0],[1,1,0],[0,0.25,0],[0,0.5,0],[0,0.75,0],[1,0.25,0],[1,0.5,0],[1,0.75,0]];outlineConnect=0;fontColor=#232F3E;gradientColor=#60A337;gradientDirection=north;fillColor=#277116;strokeColor=#ffffff;dashed=0;verticalLabelPosition=bottom;verticalAlign=top;align=center;html=1;fontSize=12;fontStyle=0;aspect=fixed;shape=mxgraph.aws4.resourceIcon;resIcon=mxgraph.aws4.s3;" parent="B-HFraodg1j9e7LwRYst-3" vertex="1">
          <mxGeometry x="672" y="40" width="78" height="78" as="geometry" />
        </mxCell>
        <mxCell id="gc6HZHHbiF4WIszibfzu-1" value="Silver" style="sketch=0;points=[[0,0,0],[0.25,0,0],[0.5,0,0],[0.75,0,0],[1,0,0],[0,1,0],[0.25,1,0],[0.5,1,0],[0.75,1,0],[1,1,0],[0,0.25,0],[0,0.5,0],[0,0.75,0],[1,0.25,0],[1,0.5,0],[1,0.75,0]];outlineConnect=0;fontColor=#232F3E;gradientColor=#60A337;gradientDirection=north;fillColor=#277116;strokeColor=#ffffff;dashed=0;verticalLabelPosition=bottom;verticalAlign=top;align=center;html=1;fontSize=12;fontStyle=0;aspect=fixed;shape=mxgraph.aws4.resourceIcon;resIcon=mxgraph.aws4.s3;" vertex="1" parent="B-HFraodg1j9e7LwRYst-3">
          <mxGeometry x="673" y="202" width="74" height="74" as="geometry" />
        </mxCell>
        <mxCell id="gc6HZHHbiF4WIszibfzu-2" value="Gold" style="sketch=0;points=[[0,0,0],[0.25,0,0],[0.5,0,0],[0.75,0,0],[1,0,0],[0,1,0],[0.25,1,0],[0.5,1,0],[0.75,1,0],[1,1,0],[0,0.25,0],[0,0.5,0],[0,0.75,0],[1,0.25,0],[1,0.5,0],[1,0.75,0]];outlineConnect=0;fontColor=#232F3E;gradientColor=#60A337;gradientDirection=north;fillColor=#277116;strokeColor=#ffffff;dashed=0;verticalLabelPosition=bottom;verticalAlign=top;align=center;html=1;fontSize=12;fontStyle=0;aspect=fixed;shape=mxgraph.aws4.resourceIcon;resIcon=mxgraph.aws4.s3;" vertex="1" parent="B-HFraodg1j9e7LwRYst-3">
          <mxGeometry x="668" y="400" width="74" height="74" as="geometry" />
        </mxCell>
        <mxCell id="gc6HZHHbiF4WIszibfzu-55" value="" style="group" vertex="1" connectable="0" parent="B-HFraodg1j9e7LwRYst-3">
          <mxGeometry x="320" y="70" width="200.00000000000006" height="320" as="geometry" />
        </mxCell>
        <mxCell id="gc6HZHHbiF4WIszibfzu-56" value="" style="rounded=0;whiteSpace=wrap;html=1;" vertex="1" parent="gc6HZHHbiF4WIszibfzu-55">
          <mxGeometry y="43.24324324324324" width="200" height="233.51351351351352" as="geometry" />
        </mxCell>
        <mxCell id="gc6HZHHbiF4WIszibfzu-3" value="Validation&lt;br&gt;Transformation&lt;br&gt;Load" style="sketch=0;points=[[0,0,0],[0.25,0,0],[0.5,0,0],[0.75,0,0],[1,0,0],[0,1,0],[0.25,1,0],[0.5,1,0],[0.75,1,0],[1,1,0],[0,0.25,0],[0,0.5,0],[0,0.75,0],[1,0.25,0],[1,0.5,0],[1,0.75,0]];outlineConnect=0;fontColor=#232F3E;gradientColor=#F78E04;gradientDirection=north;fillColor=#D05C17;strokeColor=#ffffff;dashed=0;verticalLabelPosition=bottom;verticalAlign=top;align=center;html=1;fontSize=12;fontStyle=0;aspect=fixed;shape=mxgraph.aws4.resourceIcon;resIcon=mxgraph.aws4.lambda;" vertex="1" parent="gc6HZHHbiF4WIszibfzu-55">
          <mxGeometry x="60.5" y="103.78378378378379" width="68.32432432432432" height="68.32432432432432" as="geometry" />
        </mxCell>
        <mxCell id="gc6HZHHbiF4WIszibfzu-61" value="2" style="ellipse;whiteSpace=wrap;html=1;aspect=fixed;fillColor=#fa6800;fontColor=#FFFFFF;strokeColor=#C73500;" vertex="1" parent="gc6HZHHbiF4WIszibfzu-55">
          <mxGeometry x="178.20000000000005" y="271.002972972973" width="21.8" height="21.8" as="geometry" />
        </mxCell>
        <mxCell id="gc6HZHHbiF4WIszibfzu-17" value="Raw" style="sketch=0;points=[[0,0,0],[0.25,0,0],[0.5,0,0],[0.75,0,0],[1,0,0],[0,1,0],[0.25,1,0],[0.5,1,0],[0.75,1,0],[1,1,0],[0,0.25,0],[0,0.5,0],[0,0.75,0],[1,0.25,0],[1,0.5,0],[1,0.75,0]];outlineConnect=0;fontColor=#232F3E;gradientColor=#60A337;gradientDirection=north;fillColor=#277116;strokeColor=#ffffff;dashed=0;verticalLabelPosition=bottom;verticalAlign=top;align=center;html=1;fontSize=12;fontStyle=0;aspect=fixed;shape=mxgraph.aws4.resourceIcon;resIcon=mxgraph.aws4.s3;" vertex="1" parent="B-HFraodg1j9e7LwRYst-3">
          <mxGeometry x="40" y="80" width="78" height="78" as="geometry" />
        </mxCell>
        <mxCell id="gc6HZHHbiF4WIszibfzu-43" value="RDS" style="sketch=0;points=[[0,0,0],[0.25,0,0],[0.5,0,0],[0.75,0,0],[1,0,0],[0,1,0],[0.25,1,0],[0.5,1,0],[0.75,1,0],[1,1,0],[0,0.25,0],[0,0.5,0],[0,0.75,0],[1,0.25,0],[1,0.5,0],[1,0.75,0]];outlineConnect=0;fontColor=#232F3E;gradientColor=#4D72F3;gradientDirection=north;fillColor=#3334B9;strokeColor=#ffffff;dashed=0;verticalLabelPosition=bottom;verticalAlign=top;align=center;html=1;fontSize=12;fontStyle=0;aspect=fixed;shape=mxgraph.aws4.resourceIcon;resIcon=mxgraph.aws4.rds;" vertex="1" parent="B-HFraodg1j9e7LwRYst-3">
          <mxGeometry x="41" y="300" width="78" height="78" as="geometry" />
        </mxCell>
        <mxCell id="gc6HZHHbiF4WIszibfzu-62" style="edgeStyle=orthogonalEdgeStyle;rounded=0;orthogonalLoop=1;jettySize=auto;html=1;entryX=1.015;entryY=0.446;entryDx=0;entryDy=0;entryPerimeter=0;" edge="1" parent="B-HFraodg1j9e7LwRYst-3" source="gc6HZHHbiF4WIszibfzu-56" target="gc6HZHHbiF4WIszibfzu-47">
          <mxGeometry relative="1" as="geometry" />
        </mxCell>
        <mxCell id="gc6HZHHbiF4WIszibfzu-63" style="edgeStyle=orthogonalEdgeStyle;rounded=0;orthogonalLoop=1;jettySize=auto;html=1;entryX=0.002;entryY=0.433;entryDx=0;entryDy=0;entryPerimeter=0;" edge="1" parent="B-HFraodg1j9e7LwRYst-3" source="gc6HZHHbiF4WIszibfzu-56" target="gc6HZHHbiF4WIszibfzu-51">
          <mxGeometry relative="1" as="geometry" />
        </mxCell>
      </root>
    </mxGraphModel>
  </diagram>
</mxfile>
